<svg xmlns="http://www.w3.org/2000/svg" xmlns:xlink="http://www.w3.org/1999/xlink" xmlns:inkscape="http://www.inkscape.org/namespaces/inkscape" version="1.1" width="479" height="351" viewBox="0 0 479 351">
<defs>
<clipPath id="clip_1">
<path transform="matrix(1,0,0,-1,-145,467.28004)" d="M145 116.28003H624V467.28004H145Z" clip-rule="evenodd"/>
</clipPath>
<clipPath id="clip_2">
<path transform="matrix(1,0,0,-1,-145,467.28004)" d="M0 0H841.89V595.281H0Z"/>
</clipPath>
<path id="font_3_104" d="M.18554688 .28808595 .32128907 .6591797H.32421876L.45898438 .28808595H.18554688M.26660157 .68847659 .025390625 .026367188C.020833334 .015950522 .020507813 .0068359377 .024414063-.0009765625 .028320313-.0087890629 .034179689-.0139973959 .041992189-.016601563 .049804689-.019205729 .057291669-.018554688 .064453128-.0146484379 .072916667-.0100911459 .07910156-.0029296876 .08300781 .0068359377L.16601563 .234375H.4794922L.56152346 .0068359377C.5654297-.0029296876 .57128909-.0100911459 .57910159-.0146484379 .58691409-.017903647 .59472659-.018229166 .60253909-.015625 .61035159-.013020833 .61588546-.0081380209 .6191406-.0009765625 .6230469 .007486979 .6233724 .016601563 .6201172 .026367188L.3779297 .68847659C.37272135 .7034505 .36490885 .71484377 .3544922 .72265627 .34472657 .7298177 .3343099 .73339846 .3232422 .73339846 .3108724 .73339846 .2998047 .7298177 .29003907 .72265627 .2796224 .71484377 .2718099 .7034505 .26660157 .68847659Z"/>
<path id="font_3_138" d="M.3017578 .5390625C.35904948 .5390625 .40690104 .5253906 .4453125 .49804688 .47721354 .47460938 .4983724 .44563804 .50878909 .4111328 .5107422 .40266929 .50911459 .39518229 .50390627 .38867188 .49934898 .38216148 .49283854 .3779297 .484375 .37597657 .4752604 .37402345 .4671224 .37467448 .45996095 .3779297 .4514974 .38183595 .44628907 .38834635 .44433595 .39746095 .4345703 .4280599 .41796876 .45052085 .39453126 .46484376 .37109376 .47851563 .3388672 .48535157 .29785157 .48535157 .24251302 .48535157 .1998698 .4622396 .16992188 .41601563 .14322917 .37565104 .12988281 .32389323 .12988281 .2607422 .12988281 .19628906 .14322917 .1438802 .16992188 .103515628 .19921875 .059244794 .24186199 .037109376 .29785157 .037109376 .34407554 .037109376 .37923179 .044270833 .4033203 .05859375 .42740885 .072916667 .4453125 .09700521 .45703126 .13085938 .4596354 .13997396 .46549479 .14648438 .47460938 .15039063 .48242188 .15364583 .4905599 .15429688 .49902345 .15234375 .508138 .15039063 .51464846 .14615886 .5185547 .13964844 .523112 .13313802 .5234375 .125 .51953127 .115234378 .5 .07421875 .47623698 .04329427 .4482422 .022460938 .4111328-.004231771 .3623047-.017578125 .3017578-.017578125 .22298177-.017578125 .16308594 .010416667 .12207031 .06640625 .08626302 .115234378 .068359378 .1796875 .068359378 .25976563 .068359378 .3372396 .08691406 .40169273 .12402344 .453125 .16634114 .5104167 .22558594 .5390625 .3017578 .5390625Z"/>
<path id="font_3_136" d="M.41601563 .125C.40104167 .09830729 .37923179 .07747396 .35058595 .0625 .3186849 .045572919 .28027345 .037109376 .23535156 .037109376 .19563802 .037109376 .16634114 .045572919 .14746094 .0625 .12923177 .078125 .12011719 .10188802 .12011719 .13378906 .12011719 .16699219 .12988281 .1920573 .14941406 .20898438 .16959636 .22721355 .20410156 .23958333 .2529297 .24609375 .3017578 .25260417 .34016929 .26009117 .36816407 .2685547 .39095054 .27571617 .40690104 .28320313 .41601563 .29101563V.125M.28222657 .5390625C.22753906 .5390625 .18359375 .52701827 .15039063 .5029297 .11653646 .47753907 .095703128 .43977867 .087890628 .38964845 .0859375 .3798828 .087890628 .3720703 .09375 .36621095 .098958339 .36035157 .10546875 .35709635 .11328125 .3564453 .12174479 .35579429 .12890625 .3577474 .13476563 .3623047 .14192708 .36686198 .14615886 .3733724 .14746094 .38183595 .15071614 .41438804 .16210938 .4391276 .18164063 .4560547 .20377605 .47558595 .23697917 .48535157 .28125 .48535157 .3268229 .48535157 .3610026 .47688804 .38378907 .45996095 .40527345 .4436849 .41601563 .41959635 .41601563 .3876953 .41601563 .35970054 .40625 .34049479 .38671876 .33007813 .36653648 .3190104 .3216146 .30859376 .25195313 .29882813 .17317708 .2890625 .1188151 .2672526 .08886719 .23339844 .0686849 .20996094 .05859375 .17675781 .05859375 .13378906 .05859375 .08626302 .07324219 .049479169 .10253906 .0234375 .13248699-.00390625 .17675781-.017578125 .23535156-.017578125 .2783203-.017578125 .31673179-.0100911459 .35058595 .0048828127 .37532554 .015950522 .39746095 .030924479 .4169922 .049804689 .4169922 .029622397 .42285157 .0152994799 .4345703 .0068359377 .44889323-.0022786458 .47460938-.0068359377 .51171877-.0068359377 .5208333-.0068359377 .5279948-.00390625 .5332031 .001953125 .53776046 .0071614587 .54003909 .0133463549 .54003909 .020507813 .539388 .028320313 .5367839 .03483073 .53222659 .040039064 .52701827 .045247396 .5205078 .047851564 .5126953 .047851564 .50097659 .047851564 .49186198 .05110677 .48535157 .057617189 .4794922 .06347656 .4765625 .0719401 .4765625 .08300781V.39257813C.4765625 .4440104 .45768229 .48209635 .41992188 .50683596 .38671876 .5283203 .3408203 .5390625 .28222657 .5390625Z"/>
<path id="font_3_139" d="M.52246096 .7001953C.52246096 .710612 .51920577 .71875 .5126953 .7246094 .50683596 .7298177 .5 .7324219 .4921875 .7324219 .48372398 .7324219 .4765625 .73014327 .47070313 .72558596 .46484376 .71972659 .46191407 .71191409 .46191407 .70214846V.4482422C.44173179 .47884117 .41764323 .50130209 .38964845 .515625 .3623047 .52994796 .33007813 .5371094 .29296876 .5371094 .21809896 .5371094 .15983074 .50846359 .11816406 .45117188 .08105469 .40039063 .0625 .33626304 .0625 .25878907 .0625 .18196614 .08105469 .11816406 .11816406 .06738281 .15983074 .0094401049 .21809896-.01953125 .29296876-.01953125 .33203126-.01953125 .36751304-.0107421879 .39941407 .0068359377 .4267578 .022460938 .44759117 .041666669 .46191407 .064453128V.022460938C.46191407 .0133463549 .46484376 .005859375 .47070313 0 .4765625-.0052083337 .48339845-.0081380209 .49121095-.0087890629 .49967448-.0087890629 .50651046-.0065104167 .51171877-.001953125 .5182292 .00390625 .5218099 .0120442709 .52246096 .022460938V.7001953M.29296876 .48339845C.34765626 .48339845 .39029948 .46028648 .42089845 .4140625 .4482422 .37304688 .46191407 .32128907 .46191407 .25878907 .46191407 .19694011 .4482422 .14550781 .42089845 .10449219 .39029948 .05826823 .34765626 .03515625 .29296876 .03515625 .2376302 .03515625 .19466146 .05826823 .1640625 .10449219 .1373698 .14550781 .12402344 .19694011 .12402344 .25878907 .12402344 .32128907 .1373698 .37304688 .1640625 .4140625 .19466146 .46028648 .2376302 .48339845 .29296876 .48339845Z"/>
<path id="font_3_140" d="M.4326172 .14746094C.4169922 .11360677 .39908854 .08821615 .37890626 .07128906 .3528646 .048502607 .3203125 .037109376 .28125 .037109376 .23177083 .037109376 .19238281 .059570314 .16308594 .10449219 .13769531 .14225261 .123697917 .18880208 .12109375 .24414063H.5048828V.25976563C.5048828 .3359375 .4860026 .40039063 .4482422 .453125 .40657554 .5104167 .35091148 .5390625 .28125 .5390625 .21158855 .5390625 .15625 .5104167 .115234378 .453125 .078125 .40039063 .059570314 .3359375 .059570314 .25976563 .059570314 .1842448 .078125 .12044271 .115234378 .068359378 .15625 .011067708 .21158855-.017578125 .28125-.017578125 .33072917-.017578125 .3736979-.0048828127 .41015626 .020507813 .44596354 .044596357 .47330729 .079427089 .4921875 .125 .49609376 .13476563 .49609376 .1438802 .4921875 .15234375 .48893229 .1595052 .48339845 .16438802 .47558595 .16699219 .4671224 .17024739 .45898438 .17057292 .45117188 .16796875 .44270835 .1640625 .43652345 .15722656 .4326172 .14746094M.123046878 .29882813C.12695313 .34635417 .14095052 .38736979 .16503906 .421875 .19433594 .46419273 .23307292 .48535157 .28125 .48535157 .3294271 .48535157 .3684896 .4638672 .3984375 .42089845 .42252604 .3857422 .43652345 .3450521 .4404297 .29882813H.123046878Z"/>
<path id="font_3_148" d="M.08496094 .49804688V.0126953129C.08496094 .0035807293 .087890628-.00390625 .09375-.009765625 .099609378-.014973958 .106770839-.017578125 .115234378-.017578125 .123046878-.017578125 .12988281-.014973958 .13574219-.009765625 .14225261-.00390625 .14550781 .0035807293 .14550781 .0126953129V.39160157C.16699219 .42545573 .18977864 .44954429 .21386719 .4638672 .23795574 .4781901 .2672526 .48535157 .3017578 .48535157 .3330078 .48535157 .3577474 .47623698 .37597657 .4580078 .3922526 .44108073 .40039063 .41861979 .40039063 .390625V.0126953129C.40039063 .0035807293 .4033203-.00390625 .4091797-.009765625 .41503907-.014973958 .42220054-.017578125 .43066407-.017578125 .43847657-.017578125 .4453125-.014973958 .45117188-.009765625 .45768229-.00390625 .4609375 .0035807293 .4609375 .0126953129V.3828125C.47981773 .41927085 .50097659 .4453125 .52441409 .4609375 .54785159 .47721354 .578125 .48535157 .6152344 .48535157 .64778646 .48535157 .67285159 .47623698 .6904297 .4580078 .70670577 .44108073 .71484377 .41861979 .71484377 .390625V.0126953129C.71484377 .0035807293 .71777346-.00390625 .7236328-.009765625 .7294922-.014973958 .7366536-.017578125 .7451172-.017578125 .7529297-.017578125 .7597656-.014973958 .765625-.009765625 .77213546-.00390625 .7753906 .0035807293 .7753906 .0126953129V.40039063C.7753906 .43554688 .76204428 .46647135 .73535159 .49316407 .7047526 .523763 .6640625 .5390625 .61328127 .5390625 .5761719 .5390625 .54264327 .53059896 .5126953 .5136719 .48535157 .4986979 .46321617 .4778646 .44628907 .45117188 .4345703 .47591148 .41927085 .49544273 .40039063 .5097656 .3736979 .5292969 .34016929 .5390625 .2998047 .5390625 .26790367 .5390625 .23665364 .53059896 .20605469 .5136719 .18131511 .5 .16113281 .4827474 .14550781 .46191407V.49804688C.14550781 .50911459 .14225261 .5175781 .13574219 .5234375 .12988281 .5292969 .123046878 .53222659 .115234378 .53222659 .106770839 .53222659 .099609378 .5292969 .09375 .5234375 .087890628 .5175781 .08496094 .50911459 .08496094 .49804688Z"/>
<path id="font_3_160" d="M.024414063 .49804688 .20703125 .037109376 .17285156-.03515625C.16373699-.0546875 .15559896-.06803385 .1484375-.07519531 .13997396-.08365885 .12858074-.087890628 .11425781-.087890628H.0703125C.060546876-.087890628 .053059896-.09049479 .047851564-.095703128 .04329427-.10091146 .041015626-.10709635 .041015626-.11425781 .041015626-.12141927 .04329427-.12760417 .047851564-.1328125 .053059896-.13867188 .060546876-.14160156 .0703125-.14160156H.11425781C.14095052-.14160156 .16438802-.13346355 .18457031-.1171875 .20540364-.10091146 .2233073-.076171878 .23828125-.04296875L.45898438 .5048828C.4622396 .5126953 .46158854 .51985678 .45703126 .5263672 .45247398 .53222659 .44596354 .5361328 .4375 .53808596 .42903648 .54003909 .42122398 .53971359 .4140625 .5371094 .4049479 .5345052 .39908854 .5289714 .39648438 .5205078L.24023438 .11621094 .08203125 .5234375C.07877604 .53190109 .07324219 .5371094 .06542969 .5390625 .057617189 .5410156 .049804689 .54003909 .041992189 .5361328 .034179689 .5328776 .028320313 .5279948 .024414063 .5214844 .020507813 .51432296 .020507813 .50651046 .024414063 .49804688Z"/>
</defs>
<g clip-path="url(#clip_1)">
<g inkscape:groupmode="layer" inkscape:label="&#xB808;&#xC774;&#xC5B4; 1">
<path transform="matrix(1,0,0,-1,476.25,109.500247)" d="M0 0V-22.083H-366.917L-395.5-161.25-449.25-77.25-470.25-85-474.5-78.875-442.375-67-398-136-370.5 0Z" fill="#4f4f4f"/>
<g clip-path="url(#clip_2)">
<path transform="matrix(1,0,0,-1,99.833499,176.06714)" d="M0 0-7.875-39.375C-7.875-39.375 21.125-38.25 52.625-18.625 84.125 1 97.875 23.625 105.125 35.75 112.375 47.875 126.375 79.625 129.75 82.5 133.125 85.375 139 86.875 142.125 87.125 145.25 87.375 159.5 87.125 159.5 87.125L125.5 169.25 68.125 80.5 86.375 81.25C86.375 81.25 94.625 82.125 94 77.625 93.375 73.125 64 1.5 0 0" fill="#231f20"/>
<path transform="matrix(1,0,0,-1,111.666507,211.16672)" d="M0 0C0 0 13.5-7 23-14.667 32.5-22.333 51.667-41.833 62.333-48.167 73-54.5 90.396-61.708 111.146-61.208 131.896-60.708 148.083-52.083 148.083-52.083 148.083-52.083 105-43 82.5-20 60 3 43.896 14 34.896 14.667 34.896 14.667 10.792 .958 0 0" fill="#4f4f4f"/>
<path transform="matrix(1,0,0,-1,94.5,172.49973)" d="M0 0-7.875-39.375C-7.875-39.375 21.125-38.25 52.625-18.625 84.125 1 97.875 23.625 105.125 35.75 112.375 47.875 126.375 79.625 129.75 82.5 133.125 85.375 139 86.875 142.125 87.125 145.25 87.375 159.5 87.125 159.5 87.125L125.5 169.25 68.125 80.5 86.375 81.25C86.375 81.25 94.625 82.125 94 77.625 93.375 73.125 64 1.5 0 0" fill="#fd7e01"/>
<path transform="matrix(1,0,0,-1,225.3335,166.16672)" d="M0 0H32.667C32.667 0 44.167-.667 41.833-8.833 39.5-17 35.167-18.167 31.333-18.333 27.5-18.5 2-18.333 2-18.333L.833-23.958 30.5-24.667C30.5-24.667 38.333-23.667 36.167-33.167 34-42.667 27.333-42 24.333-42 21.333-42-3.667-42.01-3.667-42.01L-4.5-48.167H23.167C23.167-48.167 31-47.667 31.167-54.833 31.333-62 23.833-65.833 18-65.833H-18C-18-65.833-27.333-66.5-25.333-58-23.333-49.5-13.667-8.667-13.667-8.667-13.667-8.667-11.667 0 0 0" fill="#4f4f4f"/>
<path transform="matrix(1,0,0,-1,380.81843,165.91043)" d="M0 0H32.667C32.667 0 44.167-.667 41.833-8.833 39.5-17 35.167-18.167 31.333-18.333 27.5-18.5 2-18.333 2-18.333L.833-23.958 30.5-24.667C30.5-24.667 38.333-23.667 36.167-33.167 34-42.667 27.333-42 24.333-42 21.333-42-3.667-42.01-3.667-42.01L-4.5-48.167H23.167C23.167-48.167 31-47.667 31.167-54.833 31.333-62 23.833-65.833 18-65.833H-18C-18-65.833-27.333-66.5-25.333-58-23.333-49.5-13.667-8.667-13.667-8.667-13.667-8.667-11.667 0 0 0" fill="#4f4f4f"/>
<path transform="matrix(1,0,0,-1,285.25,166.16672)" d="M0 0H25.5C25.5 0 38.583-1.083 38.667-10.833 38.75-20.583 36.333-30.583 30.083-35.917 23.833-41.25 17.333-41.75 13.417-41.833 9.5-41.917-2.75-41.833-2.75-41.833L-6.083-57.167C-6.083-57.167-8.417-65.333-14.75-65.333H-21.083C-21.083-65.333-26.083-65.083-23.25-53.083-20.417-41.083-18.25-32-18.25-32-18.25-32-15.027-24.333-9.305-24.333-3.583-24.333 17.417-23.958 17.417-23.958 17.417-23.958 22.25-24.083 22.25-20.917 22.25-17.75 19.75-18.167 17.583-18.167H-7C-7-18.167-13.583-18.5-13.5-13.667-13.417-8.833-13.333 0 0 0" fill="#4f4f4f"/>
<path transform="matrix(1,0,0,-1,337.125,214.12473)" d="M0 0H11C11 0 16.656 .562 16.719-4.625 16.781-9.813 14.531-17.813 6.312-17.813H-14.875C-14.875-17.813-22.458-17.667-20.292-7.5-18.125 2.667-9.375 39.208-9.375 39.208-9.375 39.208-7.792 49.375 2.208 47.667 12.208 45.958 8.375 35 7 28.5 5.625 22 0 0 0 0" fill="#4f4f4f"/>
<path transform="matrix(1,0,0,-1,435.583,166.58322)" d="M0 0H27.917C27.917 0 40.75 .167 41.417-10.833 42.083-21.833 38.5-31.667 32.333-36.25 26.167-40.833 19.417-41.833 13.917-41.833L20.748-50.833C20.748-50.833 24.496-56.333 20.748-59.833 17-63.333 14.5-65.333 14.5-65.333 14.5-65.333 8.25-68.333 1.417-59.667-5.417-51-15.417-39.333-15.333-39-15.25-38.667-18.083-34.583-14.667-29.167-11.25-23.75-9-23.542 .417-23.542H19.917C19.917-23.542 24.75-23.833 24.833-20.5 24.917-17.167 22.083-17.75 19.667-17.75H-4.75C-4.75-17.75-10.583-17.643-10.917-11.238-11.25-4.833-7.417 0 0 0" fill="#4f4f4f"/>
</g>
<use data-text="A" xlink:href="#font_3_104" transform="matrix(74.3861,0,0,-80,56.671907,335.8405)" fill="#4f4f4f"/>
<use data-text="c" xlink:href="#font_3_138" transform="matrix(74.3861,0,0,-80,120.19763,335.8405)" fill="#4f4f4f"/>
<use data-text="a" xlink:href="#font_3_136" transform="matrix(74.3861,0,0,-80,178.7395,335.8405)" fill="#4f4f4f"/>
<use data-text="d" xlink:href="#font_3_139" transform="matrix(74.3861,0,0,-80,236.90946,335.8405)" fill="#4f4f4f"/>
<use data-text="e" xlink:href="#font_3_140" transform="matrix(74.3861,0,0,-80,298.27799,335.8405)" fill="#4f4f4f"/>
<use data-text="m" xlink:href="#font_3_148" transform="matrix(74.3861,0,0,-80,356.81986,335.8405)" fill="#4f4f4f"/>
<use data-text="y" xlink:href="#font_3_160" transform="matrix(74.3861,0,0,-80,436.7849,335.8405)" fill="#4f4f4f"/>
</g>
</g>
</svg>
